<svg width="69" height="80" viewBox="0 0 69 80" fill="none" xmlns="http://www.w3.org/2000/svg">
    <g clip-path="url(#clip0_121_3)">
        <path d="M68.9148 19.6393L34.8969 0.128575C34.5929 -0.0428582 34.2149 -0.0428582 33.9109 0.128575L-0.107084 19.6393C-0.411109 19.8107 -0.600098 20.1372 -0.600098 20.4883V59.5097C-0.600098 59.8607 -0.411109 60.1873 -0.107084 60.3587L33.9109 79.8694C34.0588 79.9592 34.2313 80 34.4039 80C34.5764 80 34.749 79.9592 34.8969 79.8694L68.9066 60.3587C69.2107 60.1791 69.3996 59.8607 69.3996 59.5097V20.4883C69.4079 20.1372 69.2189 19.8107 68.9148 19.6393ZM34.4039 2.1123L66.4416 20.4883L34.4039 38.8643L2.3662 20.4883L34.4039 2.1123ZM1.38017 22.1863L11.6431 28.0721L33.4179 40.5623V77.3142L1.38017 58.9464V22.1863ZM67.4276 58.9464L35.3899 77.3224V40.5623L57.1647 28.0721L67.4276 22.1863V58.9464Z" fill="#233145"/>
    </g>
    <defs>
        <clipPath id="clip0_121_3">
            <rect width="68.8" height="80" fill="white"/>
        </clipPath>
    </defs>
</svg>
