<svg width="128" height="128" viewBox="0 0 128 128" fill="none" xmlns="http://www.w3.org/2000/svg">
<path d="M21 112H41V116C41 120.418 37.4183 124 33 124H29C24.5817 124 21 120.418 21 116V112Z" fill="#2463EB"/>
<rect x="21" y="95" width="20" height="12" fill="#2463EB"/>
<path fill-rule="evenodd" clip-rule="evenodd" d="M107 47C107 69.9225 89.0637 88.6558 66.4602 89.9308L66.5294 90H64.0366L64 90L63.9634 90H21V49.1078V47V44.4706L21.0692 44.5398C22.3442 21.9363 41.0775 4 64 4C87.7482 4 107 23.2518 107 47ZM87.2624 47C87.2624 59.4007 77.5591 69.5352 65.331 70.2249L65.3684 70.2623H64.0467L64 70.2624L63.9534 70.2623H40.7377V48.1403V47.0129L40.7377 47L40.7377 46.9871V45.6316L40.7751 45.669C41.4649 33.4409 51.5993 23.7377 64 23.7377C76.8475 23.7377 87.2624 34.1526 87.2624 47Z" fill="#2463EB"/>
</svg>
