<?xml version="1.0" standalone="no"?>
<!DOCTYPE svg PUBLIC "-//W3C//DTD SVG 20010904//EN"
 "http://www.w3.org/TR/2001/REC-SVG-20010904/DTD/svg10.dtd">
<svg version="1.0" xmlns="http://www.w3.org/2000/svg"
 width="260.000000pt" height="260.000000pt" viewBox="0 0 260.000000 260.000000"
 preserveAspectRatio="xMidYMid meet">
<metadata>
Created by potrace 1.14, written by Peter Selinger 2001-2017
</metadata>
<g transform="translate(0.000000,260.000000) scale(0.100000,-0.100000)"
fill="#000000" stroke="none">
<path d="M25 2575 l-25 -24 0 -1251 0 -1251 25 -24 24 -25 1251 0 1251 0 24
25 25 24 0 1251 0 1251 -25 24 -24 25 -1251 0 -1251 0 -24 -25z m1606 -661
c170 -97 309 -179 309 -183 0 -9 -603 -351 -619 -351 -19 0 -621 343 -618 352
1 6 602 354 615 357 2 1 143 -78 313 -175z m-648 -534 l257 -145 0 -357 c0
-197 -2 -358 -5 -358 -3 0 -145 80 -315 177 l-310 177 0 359 0 358 59 -33 c32
-18 173 -98 314 -178z m1047 -148 l0 -358 -310 -177 c-171 -97 -313 -177 -315
-177 -3 0 -5 161 -5 358 l1 357 312 177 c172 98 313 177 315 178 1 0 2 -161 2
-358z"/>
</g>
</svg>
